<?xml version="1.0" encoding="UTF-8" standalone="no"?>
<svg
   xmlns:dc="http://purl.org/dc/elements/1.1/"
   xmlns:cc="http://creativecommons.org/ns#"
   xmlns:rdf="http://www.w3.org/1999/02/22-rdf-syntax-ns#"
   xmlns:svg="http://www.w3.org/2000/svg"
   xmlns="http://www.w3.org/2000/svg"
   xmlns:sodipodi="http://sodipodi.sourceforge.net/DTD/sodipodi-0.dtd"
   xmlns:inkscape="http://www.inkscape.org/namespaces/inkscape"
   width="95.351219pt"
   height="28.37838pt"
   version="1.1"
   viewBox="0 0 95.351219 28.37838"
   id="svg3771"
   sodipodi:docname="logo4.svg"
   inkscape:version="0.92.4 (5da689c313, 2019-01-14)">
  <metadata
     id="metadata3777">
    <rdf:RDF>
      <cc:Work
         rdf:about="">
        <dc:format>image/svg+xml</dc:format>
        <dc:type
           rdf:resource="http://purl.org/dc/dcmitype/StillImage" />
        <dc:title></dc:title>
      </cc:Work>
    </rdf:RDF>
  </metadata>
  <defs
     id="defs3775" />
  <sodipodi:namedview
     pagecolor="#ffffff"
     bordercolor="#666666"
     borderopacity="1"
     objecttolerance="10"
     gridtolerance="10"
     guidetolerance="10"
     inkscape:pageopacity="0"
     inkscape:pageshadow="2"
     inkscape:window-width="1920"
     inkscape:window-height="1001"
     id="namedview3773"
     showgrid="false"
     inkscape:snap-text-baseline="false"
     inkscape:zoom="8.5701342"
     inkscape:cx="89.539988"
     inkscape:cy="19.688445"
     inkscape:window-x="-9"
     inkscape:window-y="-9"
     inkscape:window-maximized="1"
     inkscape:current-layer="layer1"
     fit-margin-top="0"
     fit-margin-left="0"
     fit-margin-right="0"
     fit-margin-bottom="0" />
  <g
     id="g3769"
     transform="matrix(0.37693379,0,0,0.39427221,-7.6884768,-5.5243368)">
    <path
       d="m 41.5,24.699 c 0.5,-1.1016 0.80078,-2.3008 1.5,-3.1016 1.5,-1.6992 3.3984,-1.8984 5.5,-1 0.5,0.19922 1.1992,0.19922 1.6016,0 1.8984,-0.89844 3.5,-2.1992 4.5,-4.3008 1.1992,-2.6016 3.3008,-3 5.5,-1.1016 1.5,1.3008 3,2.5 4.3984,3.8984 0.80078,0.69922 1.3984,1.5 2.1016,2.1992 0.60156,-0.30078 1.1992,-0.80078 1.8984,-0.80078 0.60156,0 1.3008,0.5 2.1016,0.89844 0.10156,0 0.30078,-0.19922 0.5,-0.30078 2.3008,-1.3008 4.1016,-0.80078 5.3008,1.5 0.80078,1.3984 1.5,2.8984 2.3984,4.3008 0.39844,0.69922 1,1.3008 1.5,1.8008 1.6992,1.6016 2.3008,3.6992 2.5,5.8984 0.30078,3 -0.39844,5.8008 -1.3008,8.6992 -1.8008,5.8984 -2.3984,12.102 -2.3984,18.199 0,2.6016 0.39844,5.1016 0.19922,7.6992 -0.60156,8.6992 -5.6016,14.5 -14.102,16.102 -3.5,0.60156 -7.1992,0.69922 -10.801,0.69922 -4.3984,0 -8.8984,-0.10156 -13.301,-0.39844 -2,-0.10156 -4.1016,-0.5 -6,-1.1016 -7.1992,-2.3984 -10.602,-7.8984 -11.301,-15.199 -0.19922,-2.1992 0.19922,-4.5 0.10156,-6.8008 -0.19922,-4.3008 -0.30078,-8.6016 -0.80078,-12.801 -0.5,-3.5 -1.6016,-7 -2.3984,-10.5 -0.19922,-1 -0.30078,-2 -0.30078,-3 0,-0.60156 0.19922,-1.3984 0.60156,-1.6992 0.39844,-0.19922 1.1016,0.19922 1.6992,0.39844 0.10156,0 0.30078,0.19922 0.5,0.30078 0.19922,-1.3008 0.89844,-1.6016 2.1016,-1.1016 0.19922,0.10156 0.69922,-0.30078 0.80078,-0.60156 0.39844,-1.1992 0.5,-2.5 1,-3.6992 0.60156,-1.5 1.5,-1.8008 2.8984,-1.1016 1.8984,0.89844 3.5,0.5 4.6016,-1.3008 0.39844,-0.60156 0.69922,-1.3008 1.1016,-1.8984 1.3984,-2 3.1016,-2.3984 5.1992,-1.1992 0.39844,0.31641 0.59766,0.41406 0.59766,0.41406 z M 64,82.898 c 0.30078,0 0.60156,0.10156 1,0 5.8008,-1.3008 9.8008,-4.5 11.398,-10.398 0.80078,-3 0.60156,-6.1016 0.60156,-9.3008 -0.10156,-4.1992 0.10156,-8.3984 0.5,-12.5 0.39844,-3.1992 1.1016,-6.5 2.1016,-9.6016 0.80078,-2.3008 1,-4.5 0.89844,-6.8008 -0.10156,-1.5 -0.60156,-2.8008 -1.6992,-3.8984 -0.80078,-0.80078 -1.5,-1.6992 -2.1016,-2.5 -0.5,-0.60156 -0.80078,-1.3008 -1.3008,-2.1016 v 6.3008 c 0.10156,1.8008 0.30078,3.6016 0.30078,5.3984 0,1.3008 -0.5,2.6016 -0.80078,4.1992 -0.19922,-3.1016 -0.10156,-5.8984 -0.69922,-8.6016 -0.69922,-3.1992 -0.89844,-6.3008 -0.89844,-9.5 0,-0.30078 0,-0.5 -0.10156,-1 -1.5,1.1016 -3,1.8008 -4.6016,0.60156 -2,1.3008 -3.1016,1 -4.3984,-0.89844 -0.69922,-1.1016 -1.8984,-1.8984 -3,-3 0,3.1016 -0.30078,5.8008 0.10156,8.5 0.60156,3.8984 0.89844,7.6992 0.39844,11.602 -0.39844,3 -1.1016,6 -1.3984,9 -0.19922,2.3984 0,4.8984 0,7.3008 -1,-1.8008 -1.5,-5.8984 -0.89844,-8.6992 1.1992,-6.3008 1.3008,-12.602 0.80078,-19 -0.30078,-3.1016 -0.30078,-6.1016 -0.5,-9.1992 0,-0.69922 -1.1992,-2.1992 -1.8008,-2.1016 -0.39844,0 -0.89844,0.5 -1.1016,0.89844 -1.1016,2.6016 -3.1992,4.1016 -5.6016,5.3008 -0.69922,0.30078 -0.89844,0.69922 -0.89844,1.5 0.10156,4.6016 0.19922,9.1016 0.19922,13.699 0,0.39844 0,0.80078 -0.10156,1.5 -1.3008,-0.89844 -1.5,-2.1016 -1.6016,-3.1016 -0.30078,-4 -0.5,-8 -0.69922,-12.102 -0.10156,-1.1992 -0.39844,-1.6016 -1.6016,-1.6992 -1.1016,0 -1.8984,0.69922 -2.1016,1.8008 -0.30078,1.8008 -0.60156,3.6016 -1.1016,5.3008 -0.60156,2.1992 -1.6016,4.1992 -4.3984,4.8008 v 5.6016 h -0.60156 c -0.30078,-1.8008 -0.60156,-3.6992 -0.80078,-5.5 -0.10156,-0.69922 -0.19922,-1.1992 -1.1016,-1.3984 -0.30078,0.60156 -0.60156,1.3008 -0.80078,2 -0.30078,1.3984 -1.1016,2.5 -2.3984,3 -1.1992,0.5 -2.5,0.69922 -3.8984,1.1016 -0.69922,4.8984 1.1016,10.102 -0.5,15.398 -0.39844,-4.6016 -0.89844,-8.8984 -1.1016,-13.301 -0.10156,-1.8984 -0.30078,-3.5 -2.3008,-4.1992 -0.10156,0 -0.10156,0 -0.19922,-0.10156 -0.69922,0.30078 -1.3984,0.60156 -2.1992,0.89844 0.89844,4.3008 2,8.5 2.6016,12.898 0.5,4.1016 0.5,8.1992 0.60156,12.301 0.10156,2.5 -0.19922,5 0.10156,7.3984 0.5,4.6992 2.8984,8.3984 7,10.801 0.19922,0.10156 0.39844,0.10156 0.80078,0.30078 -1.5,-2 -1.8984,-3.8984 -1.5,-6.1992 0.10156,0.10156 0.19922,0.10156 0.19922,0.10156 0.10156,0.19922 0.10156,0.5 0.19922,0.69922 0.60156,2.3984 1.8984,4.3984 3.6992,6 0.5,0.39844 1.1992,0.80078 1.8008,0.80078 5.6992,0.19922 11.5,0.5 17.199,0.60156 2.1016,0 4.1016,-0.19922 6.3984,-0.30078 0.19922,-1.8984 0.30078,-3.6992 0.5,-5.5 0.10156,0 0.19922,0 0.39844,-0.10156 0.50781,1.5 0.80859,3.3008 1.0078,5 z M 29.102,31.101 c -0.19922,0.80078 -0.30078,1.6016 -0.5,2.3008 -0.19922,0.80078 -0.39844,1.5 -0.60156,2.3008 2.6016,1.3984 4.5,0.69922 5.3984,-2 1.1016,-3.1992 2.6992,-3.8008 5.3984,-2 0.10156,0 0.10156,0 0.30078,0.10156 1.1992,-0.89844 1.6016,-2.1992 1.8984,-3.5 0.10156,-0.19922 -0.10156,-0.60156 -0.19922,-0.80078 -1.1016,-1.6992 -2.3984,-1.6016 -3.5,0.10156 -0.39844,0.69922 -0.80078,1.3984 -1.3008,2 -1.1992,1.5 -2.8008,2.1016 -4.6016,2 -0.59375,-0.0039 -1.3945,-0.30469 -2.293,-0.50391 z"
       id="path3757"
       inkscape:connector-curvature="0" />
    <path
       d="m 44.699,65.602 c 0,3.8984 -3.1992,7.1016 -7.1016,7.1016 -3.8984,0 -7.1016,-3.1992 -7,-7.1992 0,-3.8984 3.1992,-7 7.1016,-7 3.8008,-0.0039 7,3.1953 7,7.0977 z"
       id="path3759"
       inkscape:connector-curvature="0" />
    <path
       d="m 44.102,76.5 h 14.102 c -0.69922,2.3008 -3.3984,3.8008 -7,3.8008 -3.5039,0 -6.3047,-1.4023 -7.1016,-3.8008 z"
       id="path3761"
       inkscape:connector-curvature="0" />
    <path
       d="m 46.199,38 c 0.80078,4.3984 1.8984,9.5 2.6992,14.699 0.5,3.3008 0.30078,6.6016 0.39844,9.8984 0,0.69922 -0.39844,1.3984 -0.60156,2 -0.39844,1.5 -0.80078,2.8984 -1,4.3984 -0.19922,1.1992 0,2.5 -0.10156,3.6992 -0.89844,-2.6992 -0.80078,-5.5 -0.30078,-8.3008 0.89844,-4.6992 1,-9.3984 0,-14.102 -1.0938,-4.293 -1.293,-8.6914 -1.0938,-12.293 z"
       id="path3763"
       inkscape:connector-curvature="0" />
    <path
       d="m 61.199,68 c -0.19922,-0.80078 -0.30078,-1.3984 -0.5,-2.1016 l 12,-3 c 0.19922,0.69922 0.39844,1.3008 0.60156,2.1016 -4,1 -8,2 -12.102,3 z"
       id="path3765"
       inkscape:connector-curvature="0" />
    <path
       d="m 56,74.602 c -0.19922,-1.5 -0.60156,-2.8984 -0.5,-4.3984 0.30078,-3 0,-5.8984 -0.60156,-8.8008 -0.30078,-1.3984 -0.19922,-2.8008 0.39844,-4 0.5,2.3008 1.1016,4.8008 1.5,7.1992 0.19922,1.1992 0.19922,2.5 0.10156,3.8008 -0.10156,2 -0.39844,4 -0.69922,6 C 56.101563,74.60202 56,74.60202 56,74.60202 Z"
       id="path3767"
       inkscape:connector-curvature="0" />
  </g>
  <g
     inkscape:groupmode="layer"
     id="layer1"
     inkscape:label="Name"
     transform="translate(-2.1278177,-30.226498)">
    <text
       xml:space="preserve"
       style="font-style:normal;font-variant:normal;font-weight:bold;font-stretch:normal;font-size:11.42566395px;line-height:1.25;font-family:'Century Gothic';-inkscape-font-specification:'Century Gothic, Bold';font-variant-ligatures:normal;font-variant-caps:normal;font-variant-numeric:normal;font-feature-settings:normal;text-align:start;letter-spacing:0px;word-spacing:0px;writing-mode:lr-tb;text-anchor:start;fill:#000000;fill-opacity:1;stroke:none;stroke-width:0.28564158"
       x="28.186003"
       y="48.411148"
       id="text3782"
       transform="scale(0.96597079,1.035228)"><tspan
         sodipodi:role="line"
         id="tspan3780"
         x="28.186003"
         y="48.411148"
         style="font-style:normal;font-variant:normal;font-weight:bold;font-stretch:normal;font-size:11.42566395px;font-family:'Century Gothic';-inkscape-font-specification:'Century Gothic, Bold';font-variant-ligatures:normal;font-variant-caps:normal;font-variant-numeric:normal;font-feature-settings:normal;text-align:start;writing-mode:lr-tb;text-anchor:start;stroke-width:0.28564158">Marvel Focus</tspan></text>
    <ellipse
       style="fill:#ff0000;stroke-width:0.75;opacity:0"
       id="path4664"
       cx="102.88586"
       cy="45.470596"
       rx="0.47957921"
       ry="0.63428217" />
  </g>
</svg>
